<?xml version="1.0" encoding="UTF-8" standalone="no"?>
<!DOCTYPE svg PUBLIC "-//W3C//DTD SVG 1.1//EN" "http://www.w3.org/Graphics/SVG/1.1/DTD/svg11.dtd">
<svg width="100%" height="100%" viewBox="0 0 1080 1080" version="1.1" xmlns="http://www.w3.org/2000/svg" xmlns:xlink="http://www.w3.org/1999/xlink" xml:space="preserve" xmlns:serif="http://www.serif.com/" style="fill-rule:evenodd;clip-rule:evenodd;stroke-linejoin:round;stroke-miterlimit:2;">
    <g transform="matrix(14.6533,-14.6533,13.9964,13.9964,-4683.21,-1970.06)">
        <path d="M75.562,285.512L69.683,285.512L69.683,263.171L75.562,263.171L75.562,285.512ZM70.648,267.872L74.597,267.872L74.597,264.181L70.648,264.181L70.648,267.872ZM70.648,284.501L74.597,284.501L74.597,269.208L70.648,269.208L70.648,284.501ZM81.738,268.308C82.359,267.999 82.998,267.846 83.656,267.846C84.368,267.846 85.028,268.072 85.631,268.533C85.824,268.68 86.001,268.841 86.162,269.014C86.416,268.802 86.689,268.614 86.982,268.448C87.689,268.046 88.436,267.846 89.222,267.846C89.979,267.846 90.658,268.087 91.261,268.57C91.823,269.019 92.241,269.575 92.517,270.237C92.793,270.871 92.929,271.521 92.929,272.185L92.929,273.495C92.978,273.042 93.057,272.605 93.167,272.183L93.169,272.179C93.378,271.406 93.692,270.702 94.111,270.065C94.56,269.381 95.163,268.835 95.928,268.433L95.93,268.432C96.672,268.047 97.525,267.846 98.492,267.846C99.602,267.846 100.503,268.092 101.206,268.545C101.911,268.099 102.863,267.846 104.082,267.846L105.663,267.846L105.1,272.691L104.246,272.691C104.081,272.691 103.93,272.696 103.795,272.71C103.945,273.298 104.027,274.012 104.027,274.857C104.027,275.668 103.903,276.439 103.658,277.166C103.416,277.911 103.061,278.571 102.596,279.148C102.122,279.747 101.512,280.225 100.758,280.573C100.675,280.612 100.591,280.649 100.506,280.683C100.838,280.751 101.17,280.83 101.502,280.919C102.081,281.066 102.608,281.249 103.083,281.465C103.666,281.73 104.135,282.105 104.494,282.58C104.612,282.732 104.713,282.89 104.797,283.056L111.422,261.987L115.564,261.987L108.154,285.512L105.032,285.512C104.97,285.877 104.876,286.214 104.752,286.525C104.503,287.175 104.159,287.687 103.737,288.07C103.341,288.444 102.85,288.75 102.257,288.977C101.721,289.183 101.175,289.322 100.624,289.393C100.101,289.469 99.519,289.508 98.878,289.508C96.816,289.508 95.274,289.228 94.243,288.725C92.902,288.069 92.277,287.054 92.277,285.743C92.277,285.666 92.279,285.589 92.283,285.512L75.859,285.512L75.859,268.198L81.738,268.198L81.738,268.308ZM92.929,283.495C93.034,283.318 93.147,283.149 93.268,282.989C93.134,282.88 93.022,282.769 92.929,282.661L92.929,283.495ZM92.929,280.273C93.145,279.881 93.461,279.4 93.883,278.835C93.365,277.751 93.049,276.663 92.929,275.571L92.929,280.273ZM76.824,284.501L80.761,284.501L80.761,272.724C81.207,272.138 81.578,271.845 81.874,271.845C82.234,271.845 82.414,272.212 82.414,272.947L82.414,284.501L86.363,284.501L86.363,272.712C86.8,272.134 87.16,271.845 87.441,271.845C87.574,271.845 87.683,271.884 87.769,271.962C87.855,272.033 87.914,272.138 87.945,272.279C87.976,272.419 87.996,272.536 88.003,272.63C88.011,272.716 88.015,272.829 88.015,272.97L88.015,284.501L91.964,284.501L91.964,272.185C91.964,271.661 91.855,271.15 91.636,270.65C91.425,270.142 91.105,269.716 90.675,269.372C90.246,269.029 89.761,268.857 89.222,268.857C88.597,268.857 88.003,269.017 87.441,269.337C86.886,269.65 86.417,270.064 86.035,270.579C85.816,270.087 85.492,269.677 85.062,269.349C84.632,269.021 84.164,268.857 83.656,268.857C83.117,268.857 82.593,268.99 82.085,269.255C81.578,269.521 81.14,269.868 80.773,270.298L80.773,269.208L76.824,269.208L76.824,284.501ZM96.828,280.529C96.828,280.458 96.917,280.247 97.097,279.896L97.308,279.931C97.449,279.962 97.624,279.993 97.835,280.025C98.046,280.056 98.222,280.072 98.363,280.072C99.097,280.072 99.765,279.931 100.367,279.65C100.976,279.368 101.472,278.986 101.855,278.501C102.246,278.017 102.542,277.462 102.746,276.837C102.957,276.212 103.062,275.552 103.062,274.857C103.062,273.669 102.898,272.783 102.57,272.197C102.914,271.853 103.472,271.681 104.246,271.681L104.574,268.857L104.082,268.857C102.738,268.857 101.781,269.181 101.21,269.829C100.601,269.181 99.695,268.857 98.492,268.857C97.687,268.857 96.976,269.017 96.359,269.337C95.749,269.658 95.265,270.091 94.906,270.638C94.546,271.185 94.277,271.79 94.097,272.454C93.925,273.111 93.839,273.814 93.839,274.564C93.839,276.033 94.238,277.493 95.035,278.947C93.996,280.267 93.476,281.15 93.476,281.595C93.476,281.798 93.624,282.013 93.921,282.24C94.218,282.458 94.527,282.65 94.847,282.814C94.371,283.158 93.984,283.599 93.687,284.138C93.39,284.669 93.242,285.204 93.242,285.743C93.242,287.579 95.121,288.497 98.878,288.497C99.472,288.497 100.011,288.462 100.496,288.392C100.98,288.329 101.457,288.208 101.925,288.029C102.394,287.849 102.785,287.611 103.097,287.314C103.417,287.025 103.671,286.634 103.859,286.142C104.054,285.658 104.152,285.091 104.152,284.443C104.152,283.974 104.015,283.564 103.742,283.212C103.476,282.861 103.128,282.587 102.699,282.392C102.269,282.197 101.792,282.033 101.269,281.9C100.746,281.759 100.222,281.646 99.699,281.56C99.183,281.474 98.71,281.392 98.281,281.314C97.851,281.228 97.499,281.122 97.226,280.997C96.96,280.872 96.828,280.716 96.828,280.529ZM98.398,277.095C97.796,277.095 97.496,276.24 97.496,274.529L97.496,273.849C97.503,273.661 97.515,273.443 97.531,273.193C97.554,272.935 97.585,272.724 97.624,272.56C97.671,272.388 97.726,272.224 97.789,272.068C97.859,271.904 97.949,271.783 98.058,271.704C98.175,271.626 98.308,271.587 98.457,271.587C99.058,271.587 99.359,272.517 99.359,274.376C99.359,276.189 99.039,277.095 98.398,277.095ZM97.179,283.575C97.421,283.583 97.624,283.595 97.789,283.611C97.96,283.626 98.187,283.65 98.468,283.681C98.749,283.712 98.988,283.759 99.183,283.822C99.378,283.884 99.574,283.962 99.769,284.056C99.972,284.15 100.124,284.275 100.226,284.431C100.328,284.579 100.378,284.747 100.378,284.935C100.378,285.474 99.933,285.74 99.042,285.732L98.972,285.732C97.238,285.732 96.371,285.501 96.371,285.04C96.371,284.618 96.546,284.13 96.898,283.575L97.179,283.575ZM97.558,284.605C97.819,284.645 98.169,284.689 98.548,284.709C98.49,284.701 98.43,284.693 98.366,284.686C98.093,284.655 97.872,284.632 97.703,284.617L97.701,284.617C97.657,284.613 97.609,284.609 97.558,284.605ZM105.359,284.501L107.457,284.501L114.23,262.997L112.121,262.997L105.359,284.501ZM59.288,274.598L69.14,267.704L69.14,273.564C69.14,273.564 64.682,276.728 64.682,276.728C65.584,277.377 66.93,278.342 68.72,279.624L69.14,279.925L69.14,285.769L59.288,278.89L59.288,274.598ZM60.253,278.349L68.175,283.88L68.175,280.458C65.285,278.388 63.55,277.142 62.972,276.72L68.175,273.029L68.175,269.595L60.253,275.138L60.253,278.349ZM115.163,279.926C115.163,279.926 119.619,276.725 119.619,276.725L115.163,273.564L115.163,267.704L125.015,274.598L125.015,278.89L115.163,285.769L115.163,279.926ZM116.128,283.88L124.05,278.349L124.05,275.138L116.128,269.595L116.128,273.029L121.332,276.72L116.128,280.458L116.128,283.88Z" style="fill:rgb(241,245,249);"/>
        <g transform="matrix(24,0,0,24,124.917,284.501)">
        </g>
        <text x="59.386px" y="284.501px" style="font-family:'Oswald-Bold', 'Oswald';font-weight:700;font-size:24px;fill:rgb(2,8,23);">&lt;img/&gt;</text>
    </g>
</svg>
